<?xml version="1.0" encoding="utf-8"?>
<!-- Generator: Adobe Illustrator 22.0.1, SVG Export Plug-In . SVG Version: 6.00 Build 0)  -->
<svg version="1.1" id="Layer_1" xmlns="http://www.w3.org/2000/svg" xmlns:xlink="http://www.w3.org/1999/xlink" x="0px" y="0px"
	 viewBox="0 0 864.6 184.3" style="enable-background:new 0 0 864.6 184.3;" xml:space="preserve">
<style type="text/css">
	.st0{fill:#FFFFFF;}
	.st1{fill:none;stroke:#649FD6;stroke-width:10;stroke-miterlimit:10;}
	.st2{fill:#649FD6;}
</style>
<g>
	<circle class="st0" cx="93.5" cy="92.1" r="17.6"/>
	<circle class="st1" cx="93.5" cy="92.1" r="70.9"/>
	<ellipse class="st1" cx="93.5" cy="92.1" rx="68" ry="42.5"/>
</g>
<g>
	<g>
		<path class="st0" d="M234,46.1c22.2,0,34.1,10.4,34.1,26.9c0,16.5-11.8,26.7-34.1,26.7h-18.1v36h-8.8V46.1H234z M234.3,92
			c16.5,0,24.8-7.4,24.8-18.9c0-11.7-8.3-18.9-24.8-18.9h-18.4V92H234.3z"/>
		<path class="st0" d="M326.1,44.3c26.2,0,46.7,19.7,46.7,46.7c0,26.9-20.5,46.6-46.7,46.6c-26.1,0-46.6-19.7-46.6-46.6
			C279.6,64,300.1,44.3,326.1,44.3z M326.1,129.3c21.1,0,37.8-15.5,37.8-38.2c0-22.9-16.6-38.4-37.8-38.4
			c-21.1,0-37.6,15.5-37.6,38.4C288.5,113.8,305,129.3,326.1,129.3z"/>
		<path class="st0" d="M392.8,46.1h8.8v81.3h48.8v8.3h-57.6V46.1z"/>
		<path class="st0" d="M481,109.4l-10.7,26.2H461l37.9-89.6H509l37.8,89.6h-9.3l-10.9-26.2H481z M514,79
			c-6.9-16.5-9.8-24.6-9.9-24.8h-0.3c0,0.2-3.5,9.1-10.6,25.9l-8.8,21.4h38.9L514,79z"/>
		<path class="st0" d="M595.1,98.1c-4,0.3-8.2,0.3-10.4,0.3H573v37.3h-8.8V46.1h27.2c21.4,0,34.1,9.1,34.1,25.9
			c0,13.9-8.8,22.2-21.6,24.6l23.8,39H618L595.1,98.1z M591.6,90.9c16.3,0,25-5.9,25-18.4c0-13-9.6-18.2-25-18.2H573v36.6H591.6z"/>
		<path class="st2" d="M645.8,46.1h16.8v89.6h-16.8V46.1z"/>
		<path class="st2" d="M726.4,61.8v73.9h-16.8V61.8h-30.4V46.1h77.4v15.7H726.4z"/>
		<path class="st0" d="M838.6,135.7V93.3h-54.2v42.4h-8.8V46.1h8.8V85h54.2V46.1h8.8v89.6H838.6z"/>
	</g>
</g>
<g>
</g>
<g>
</g>
<g>
</g>
<g>
</g>
<g>
</g>
<g>
</g>
</svg>
